<svg xmlns="http://www.w3.org/2000/svg" width="27.499" height="30.634" viewBox="0 0 27.499 30.634">
  <g id="Сгруппировать_256" data-name="Сгруппировать 256" transform="translate(1 1)">
    <path id="Контур_371" data-name="Контур 371" d="M271.412,57.616a2.621,2.621,0,1,1-2.622-2.622A2.622,2.622,0,0,1,271.412,57.616Z" transform="translate(-256.041 -54.994)" fill="none" stroke="#fff" stroke-linecap="round" stroke-linejoin="round" stroke-width="2"/>
    <path id="Контур_372" data-name="Контур 372" d="M285.443,66a2.621,2.621,0,1,1-2.622-2.622A2.621,2.621,0,0,1,285.443,66Z" transform="translate(-259.944 -57.327)" fill="none" stroke="#fff" stroke-linecap="round" stroke-linejoin="round" stroke-width="2"/>
    <path id="Контур_373" data-name="Контур 373" d="M285.443,81.632a2.621,2.621,0,1,1-2.622-2.621A2.621,2.621,0,0,1,285.443,81.632Z" transform="translate(-259.944 -61.675)" fill="none" stroke="#fff" stroke-linecap="round" stroke-linejoin="round" stroke-width="2"/>
    <path id="Контур_374" data-name="Контур 374" d="M271.412,90.02A2.621,2.621,0,1,1,268.79,87.4,2.622,2.622,0,0,1,271.412,90.02Z" transform="translate(-256.041 -64.008)" fill="none" stroke="#fff" stroke-linecap="round" stroke-linejoin="round" stroke-width="2"/>
    <path id="Контур_375" data-name="Контур 375" d="M257.38,81.632a2.621,2.621,0,1,1-2.621-2.621A2.621,2.621,0,0,1,257.38,81.632Z" transform="translate(-252.138 -61.675)" fill="none" stroke="#fff" stroke-linecap="round" stroke-linejoin="round" stroke-width="2"/>
    <path id="Контур_376" data-name="Контур 376" d="M257.38,65.721a2.621,2.621,0,1,1-2.621-2.621A2.621,2.621,0,0,1,257.38,65.721Z" transform="translate(-252.138 -57.249)" fill="none" stroke="#fff" stroke-linecap="round" stroke-linejoin="round" stroke-width="2"/>
    <line id="Линия_227" data-name="Линия 227" y1="3.228" x2="5.592" transform="translate(4.889 3.932)" fill="none" stroke="#fff" stroke-linecap="round" stroke-linejoin="round" stroke-width="2"/>
    <line id="Линия_228" data-name="Линия 228" y1="6.206" transform="translate(2.621 11.093)" fill="none" stroke="#fff" stroke-linecap="round" stroke-linejoin="round" stroke-width="2"/>
    <line id="Линия_229" data-name="Линия 229" x1="5.686" y1="3.283" transform="translate(4.794 21.419)" fill="none" stroke="#fff" stroke-linecap="round" stroke-linejoin="round" stroke-width="2"/>
    <line id="Линия_230" data-name="Линия 230" x1="5.685" y2="3.282" transform="translate(15.019 21.421)" fill="none" stroke="#fff" stroke-linecap="round" stroke-linejoin="round" stroke-width="2"/>
    <line id="Линия_231" data-name="Линия 231" y2="6.212" transform="translate(22.879 11.297)" fill="none" stroke="#fff" stroke-linecap="round" stroke-linejoin="round" stroke-width="2"/>
    <line id="Линия_232" data-name="Линия 232" x2="5.687" y2="3.283" transform="translate(15.019 3.931)" fill="none" stroke="#fff" stroke-linecap="round" stroke-linejoin="round" stroke-width="2"/>
  </g>
</svg>
