<svg xmlns="http://www.w3.org/2000/svg" width="32" height="32" viewBox="0 0 32 32">
  <g id="Сгруппировать_370" data-name="Сгруппировать 370" transform="translate(-416 -13)">
    <g id="Сгруппировать_319" data-name="Сгруппировать 319" transform="translate(419.308 24)">
      <path id="Контур_515" data-name="Контур 515" d="M1476.358,642.533h1.662v4.27a4.552,4.552,0,0,1-3.178,1.339,3.693,3.693,0,0,1-2.2-.7,4.666,4.666,0,0,1-1.533-1.94,7.355,7.355,0,0,1,0-5.609,4.634,4.634,0,0,1,1.544-1.94,3.758,3.758,0,0,1,2.223-.7,3.811,3.811,0,0,1,1.876.467,3.964,3.964,0,0,1,1.415,1.353L1477,640.518a2.448,2.448,0,0,0-2.032-1.188,2.226,2.226,0,0,0-1.337.421,2.744,2.744,0,0,0-.91,1.188,4.455,4.455,0,0,0-.326,1.76,4.411,4.411,0,0,0,.326,1.744,2.82,2.82,0,0,0,.9,1.2,2.162,2.162,0,0,0,1.319.428,2.37,2.37,0,0,0,1.415-.452Z" transform="translate(-1470.553 -637.255)" fill="#fff"/>
      <path id="Контур_516" data-name="Контур 516" d="M1491.869,648.06l-.011-6.315-2.313,5.2h-.82l-2.3-5.067v6.18h-1.707V637.534h1.505l2.942,6.542,2.9-6.542h1.494l.022,10.526Z" transform="translate(-1476.59 -637.354)" fill="#fff"/>
      <path id="Контур_517" data-name="Контур 517" d="M1506.529,638a3.073,3.073,0,0,1,1.184,1.323,5.156,5.156,0,0,1,0,4.052,3.019,3.019,0,0,1-1.184,1.323,3.473,3.473,0,0,1-1.814.459h-1.584v2.9h-1.818V637.534h3.4A3.433,3.433,0,0,1,1506.529,638Zm-.669,4.7a1.939,1.939,0,0,0,.427-1.345,1.966,1.966,0,0,0-.427-1.361,1.593,1.593,0,0,0-1.247-.474h-1.482v3.654h1.482A1.588,1.588,0,0,0,1505.86,642.7Z" transform="translate(-1483.436 -637.354)" fill="#fff"/>
    </g>
    <g id="Эллипс_87" data-name="Эллипс 87" transform="translate(416 13)" fill="none" stroke="#fff" stroke-width="2">
      <circle cx="16" cy="16" r="16" stroke="none"/>
      <circle cx="16" cy="16" r="15" fill="none"/>
    </g>
  </g>
</svg>
