<svg xmlns="http://www.w3.org/2000/svg" width="27.479" height="27.479" viewBox="0 0 27.479 27.479">
  <g id="Сгруппировать_370" data-name="Сгруппировать 370" transform="translate(-866.781 -627.605)">
    <path id="Контур_510" data-name="Контур 510" d="M889.236,644.955l3.61-3.61-3.61-3.61v-5.105H884.13l-3.61-3.61-3.61,3.61h-5.106v5.105l-3.61,3.61,3.61,3.61v5.105h5.105l3.61,3.61,3.61-3.61h5.105Z" fill="none" stroke="#fff" stroke-miterlimit="10" stroke-width="2"/>
    <g id="Сгруппировать_317" data-name="Сгруппировать 317" transform="translate(874.099 636.927)">
      <path id="Контур_511" data-name="Контур 511" d="M885.9,648a44.44,44.44,0,0,1,.192,6.577c-.139,4.036-3.758-1.809-3.758-1.809" transform="translate(-882.334 -647.982)" fill="none" stroke="#fff" stroke-miterlimit="10" stroke-width="2"/>
      <path id="Контур_512" data-name="Контур 512" d="M893.5,653a4.63,4.63,0,0,1,2.018,1.81" transform="translate(-888.838 -650.895)" fill="none" stroke="#fff" stroke-miterlimit="10" stroke-width="2"/>
      <path id="Контур_513" data-name="Контур 513" d="M894.125,660.349a5.193,5.193,0,0,0,3.34-4.854c0-.157-.157,4.906,1.514,4.854S902.372,658,902.372,658a2.468,2.468,0,0,0-1.931-.835c-1.3,0-1.253.887-1.253.887" transform="translate(-889.202 -652.346)" fill="none" stroke="#fff" stroke-miterlimit="10" stroke-width="2"/>
      <line id="Линия_269" data-name="Линия 269" y1="0.209" x2="1.688" transform="translate(2.644)" fill="none" stroke="#fff" stroke-miterlimit="10" stroke-width="2"/>
    </g>
  </g>
</svg>
