<svg xmlns="http://www.w3.org/2000/svg" width="27.41" height="26.692" viewBox="0 0 27.41 26.692">
  <g id="Сгруппировать_369" data-name="Сгруппировать 369" transform="translate(-719.127 -15.793)">
    <path id="Контур_379" data-name="Контур 379" d="M694.448,608.118c2.273,2.364,3.227,6.4,3.668,9.434a24.63,24.63,0,0,1,.236,2.565c2.462-1.715,6.633-3.14,8.506-2.284.395,2.04-2.659,6.619-6.352,8.333,2.551.517,4.193,1.7,4.835,4.086-2.641,2.248-7.593,1.748-10.893-1.142-3.3,2.891-8.252,3.391-10.893,1.142.642-2.391,2.284-3.569,4.835-4.086-3.694-1.713-6.586-6.185-6.192-8.226,1.873-.857,5.884.462,8.345,2.177C690.545,620.117,690.777,611.936,694.448,608.118Z" transform="translate(38.638 -590.618)" fill="none" stroke="#fff" stroke-miterlimit="10" stroke-width="2"/>
    <line id="Линия_234" data-name="Линия 234" x2="25.278" y2="25.278" transform="translate(719.834 16.5)" fill="none" stroke="#fff" stroke-width="2"/>
  </g>
</svg>
