<svg xmlns="http://www.w3.org/2000/svg" width="21.039" height="12.393" viewBox="0 0 21.039 12.393">
  <g id="Сгруппировать_354" data-name="Сгруппировать 354" transform="translate(199.988 -570.007) rotate(90)">
    <path id="Прямоугольник_55" data-name="Прямоугольник 55" d="M1.465,0H14.6a0,0,0,0,1,0,0V2.93a0,0,0,0,1,0,0H1.465A1.465,1.465,0,0,1,0,1.465v0A1.465,1.465,0,0,1,1.465,0Z" transform="translate(572.079 178.949) rotate(45)" fill="#fff"/>
    <path id="Прямоугольник_56" data-name="Прямоугольник 56" d="M0,0H13.131A1.465,1.465,0,0,1,14.6,1.465v0A1.465,1.465,0,0,1,13.131,2.93H0a0,0,0,0,1,0,0V0A0,0,0,0,1,0,0Z" transform="translate(582.4 189.667) rotate(135)" fill="#fff"/>
  </g>
</svg>
