<svg xmlns="http://www.w3.org/2000/svg" width="12.393" height="21.039" viewBox="0 0 12.393 21.039">
  <g id="Group_190" data-name="Group 190" transform="translate(-921.007 -356.949)">
    <path id="Rectangle_55" data-name="Rectangle 55" d="M1.465,0H14.6a0,0,0,0,1,0,0V2.93a0,0,0,0,1,0,0H1.465A1.465,1.465,0,0,1,0,1.465v0A1.465,1.465,0,0,1,1.465,0Z" transform="translate(923.079 356.949) rotate(45)" fill="#fff"/>
    <path id="Rectangle_56" data-name="Rectangle 56" d="M0,0H13.131A1.465,1.465,0,0,1,14.6,1.465v0A1.465,1.465,0,0,1,13.131,2.93H0a0,0,0,0,1,0,0V0A0,0,0,0,1,0,0Z" transform="translate(933.4 367.667) rotate(135)" fill="#fff"/>
  </g>
</svg>
