<svg xmlns="http://www.w3.org/2000/svg" xmlns:xlink="http://www.w3.org/1999/xlink" width="12.393" height="21.039" viewBox="0 0 12.393 21.039">
  <defs>
    <clipPath id="clip-path">
      <rect width="12.393" height="21.039" fill="none"/>
    </clipPath>
  </defs>
  <g id="Компонент_123_1" data-name="Компонент 123 – 1" clip-path="url(#clip-path)">
    <path id="Прямоугольник_55" data-name="Прямоугольник 55" d="M1.465,0H14.6a0,0,0,0,1,0,0V2.93a0,0,0,0,1,0,0H1.465A1.465,1.465,0,0,1,0,1.465v0A1.465,1.465,0,0,1,1.465,0Z" transform="translate(2.072) rotate(45)" fill="#a8995c"/>
    <path id="Прямоугольник_56" data-name="Прямоугольник 56" d="M0,0H13.131A1.465,1.465,0,0,1,14.6,1.465v0A1.465,1.465,0,0,1,13.131,2.93H0a0,0,0,0,1,0,0V0A0,0,0,0,1,0,0Z" transform="translate(12.392 10.718) rotate(135)" fill="#a8995c"/>
  </g>
</svg>
