<svg width="24" height="25" viewBox="0 0 24 25" fill="none" xmlns="http://www.w3.org/2000/svg">
<path d="M12.3353 21.4875H3.38916V0.92041L12.3353 0.975586V21.4875Z" fill="#2C2E33" stroke="#9F8849" stroke-width="0.5"/>
<rect x="3.0459" y="0.640625" width="4.31603" height="4.31601" fill="#2C2E33" stroke="#9F8849" stroke-width="0.5"/>
<path d="M3.97754 3.83704V1.53809H6.22046" fill="#2C2E33"/>
<path d="M3.97754 3.83704V1.53809H6.22046" stroke="#9F8849" stroke-width="0.5"/>
<rect x="8.34814" y="0.640625" width="4.31601" height="4.31601" fill="#2C2E33" stroke="#9F8849" stroke-width="0.5"/>
<rect x="3.0459" y="5.81982" width="4.31603" height="4.31624" fill="#2C2E33" stroke="#9F8849" stroke-width="0.5"/>
<rect x="8.34814" y="5.81982" width="4.31601" height="4.31624" fill="#2C2E33" stroke="#9F8849" stroke-width="0.5"/>
<path d="M9.23242 3.83704V1.53809H11.4752" fill="#2C2E33"/>
<path d="M9.23242 3.83704V1.53809H11.4752" stroke="#9F8849" stroke-width="0.5"/>
<path d="M9.12842 8.93616V6.63721H11.3712" fill="#2C2E33"/>
<path d="M9.12842 8.93616V6.63721H11.3712" stroke="#9F8849" stroke-width="0.5"/>
<path d="M3.79639 8.93616V6.63721H6.03943" fill="#2C2E33"/>
<path d="M3.79639 8.93616V6.63721H6.03943" stroke="#9F8849" stroke-width="0.5"/>
<rect x="3.0459" y="10.937" width="4.31603" height="4.31601" fill="#2C2E33" stroke="#9F8849" stroke-width="0.5"/>
<rect x="8.34814" y="10.937" width="4.31601" height="4.31601" fill="#2C2E33" stroke="#9F8849" stroke-width="0.5"/>
<path d="M13.427 21.563H2.03516V10.4609L13.427 9.7749V21.563Z" fill="#2C2E33" stroke="#9F8849" stroke-width="0.5"/>
<path d="M1.99261 10.417L13.2148 9.72168L1 14.9558L1.99261 10.417Z" fill="#2C2E33" stroke="#9F8849" stroke-width="0.5" stroke-linecap="square" stroke-linejoin="round"/>
<path d="M14.6849 21.7039C13.0509 21.7039 11.5934 21.3428 10.6416 20.7784C9.9231 20.3527 8.68408 19.8107 8.68408 19.2209C8.68408 18.6182 9.94189 18.0658 10.6886 17.6355C11.6407 17.0873 13.0775 16.7378 14.6849 16.7378C17.5524 16.7378 19.8767 17.8495 19.8767 19.2209C19.8767 20.5922 17.5524 21.7039 14.6849 21.7039Z" fill="#2C2E33" stroke="#9F8849" stroke-width="0.5" stroke-linecap="square" stroke-linejoin="round"/>
<path d="M8.20471 21.506C8.20471 21.948 7.52686 22.306 6.69043 22.306C5.85413 22.306 5.17627 21.948 5.17627 21.506C5.17627 21.0641 5.85413 20.7061 6.69043 20.7061C7.52686 20.7061 8.20471 21.0641 8.20471 21.506Z" fill="#2C2E33" stroke="#9F8849" stroke-width="0.5" stroke-linecap="square" stroke-linejoin="round"/>
<path d="M19.0287 23.1394C19.0287 23.5371 18.4186 23.8594 17.6662 23.8594C16.9136 23.8594 16.3037 23.5371 16.3037 23.1394C16.3037 22.7417 16.9136 22.4194 17.6662 22.4194C18.4186 22.4194 19.0287 22.7417 19.0287 23.1394Z" fill="#2C2E33" stroke="#9F8849" stroke-width="0.5" stroke-linecap="square" stroke-linejoin="round"/>
<path d="M17.3898 19.8448C16.0544 18.9033 15.0713 17.7681 14.6186 16.7587C14.2765 15.9968 13.5761 14.84 13.9158 14.3575C14.2635 13.865 15.6094 14.1383 16.4677 14.2169C17.562 14.3174 18.9377 14.8596 20.2514 15.7858C22.595 17.4379 23.854 19.6857 23.064 20.8066C22.274 21.9274 19.7336 21.4969 17.3898 19.8448Z" fill="#2C2E33" stroke="#9F8849" stroke-width="0.5" stroke-linecap="square" stroke-linejoin="round"/>
<ellipse cx="21.5885" cy="21.5455" rx="1.43904" ry="0.760309" fill="#2C2E33" stroke="#9F8849" stroke-width="0.5" stroke-linecap="square" stroke-linejoin="round"/>
</svg>
