<svg xmlns="http://www.w3.org/2000/svg" width="23.132" height="23.919" viewBox="0 0 23.132 23.919">
  <g id="Сгруппировать_278" data-name="Сгруппировать 278" transform="translate(0.35 0.35)">
    <path id="Контур_433" data-name="Контур 433" d="M888.209,1773h-8.946v-20.567l8.946.055Z" transform="translate(-876.873 -1752.154)" fill="#fff" stroke="#9f8849" stroke-miterlimit="10" stroke-width="0.7"/>
    <rect id="Прямоугольник_167" data-name="Прямоугольник 167" width="4.316" height="4.316" transform="translate(2.046)" fill="#fff" stroke="#9f8849" stroke-miterlimit="10" stroke-width="0.7"/>
    <path id="Контур_434" data-name="Контур 434" d="M881.868,1757.467v-2.3h2.243" transform="translate(-878.891 -1754.271)" fill="#fff" stroke="#9f8849" stroke-miterlimit="10" stroke-width="0.7"/>
    <rect id="Прямоугольник_168" data-name="Прямоугольник 168" width="4.316" height="4.316" transform="translate(7.348)" fill="#fff" stroke="#9f8849" stroke-miterlimit="10" stroke-width="0.7"/>
    <rect id="Прямоугольник_169" data-name="Прямоугольник 169" width="4.316" height="4.316" transform="translate(2.046 5.179)" fill="#fff" stroke="#9f8849" stroke-miterlimit="10" stroke-width="0.7"/>
    <rect id="Прямоугольник_170" data-name="Прямоугольник 170" width="4.316" height="4.316" transform="translate(7.348 5.179)" fill="#fff" stroke="#9f8849" stroke-miterlimit="10" stroke-width="0.7"/>
    <path id="Контур_435" data-name="Контур 435" d="M905.146,1757.467v-2.3h2.243" transform="translate(-896.914 -1754.271)" fill="#fff" stroke="#9f8849" stroke-miterlimit="10" stroke-width="0.7"/>
    <path id="Контур_436" data-name="Контур 436" d="M904.688,1780.057v-2.3h2.243" transform="translate(-896.559 -1771.761)" fill="#fff" stroke="#9f8849" stroke-miterlimit="10" stroke-width="0.7"/>
    <path id="Контур_437" data-name="Контур 437" d="M881.065,1780.057v-2.3h2.243" transform="translate(-878.269 -1771.761)" fill="#fff" stroke="#9f8849" stroke-miterlimit="10" stroke-width="0.7"/>
    <rect id="Прямоугольник_171" data-name="Прямоугольник 171" width="4.316" height="4.316" transform="translate(2.046 10.297)" fill="#fff" stroke="#9f8849" stroke-miterlimit="10" stroke-width="0.7"/>
    <rect id="Прямоугольник_172" data-name="Прямоугольник 172" width="4.316" height="4.316" transform="translate(7.348 10.297)" fill="#fff" stroke="#9f8849" stroke-miterlimit="10" stroke-width="0.7"/>
    <path id="Контур_438" data-name="Контур 438" d="M884.655,1803.446H873.263v-11.1l11.392-.686Z" transform="translate(-872.228 -1782.524)" fill="#fff" stroke="#9f8849" stroke-miterlimit="10" stroke-width="0.7"/>
    <path id="Контур_439" data-name="Контур 439" d="M869.67,1792.117l11.222-.7-12.215,5.234Z" transform="translate(-868.678 -1782.341)" fill="#fff" stroke="#9f8849" stroke-linecap="square" stroke-linejoin="round" stroke-width="0.7"/>
    <path id="Контур_440" data-name="Контур 440" d="M908.719,1827.47a8.222,8.222,0,0,1-4.043-.925c-.719-.426-1.958-.968-1.958-1.557s1.258-1.155,2-1.585a8.3,8.3,0,0,1,4-.9c2.867,0,5.192,1.112,5.192,2.483S911.586,1827.47,908.719,1827.47Z" transform="translate(-895.034 -1806.407)" fill="#fff" stroke="#9f8849" stroke-linecap="square" stroke-linejoin="round" stroke-width="0.7"/>
    <path id="Контур_441" data-name="Контур 441" d="M890.206,1840.884c0,.442-.678.8-1.514.8s-1.514-.358-1.514-.8.678-.8,1.514-.8S890.206,1840.442,890.206,1840.884Z" transform="translate(-883.002 -1820.019)" fill="#fff" stroke="#9f8849" stroke-linecap="square" stroke-linejoin="round" stroke-width="0.7"/>
    <path id="Контур_442" data-name="Контур 442" d="M939.2,1848.394c0,.4-.61.72-1.363.72s-1.362-.322-1.362-.72.61-.72,1.362-.72S939.2,1848,939.2,1848.394Z" transform="translate(-921.17 -1825.895)" fill="#fff" stroke="#9f8849" stroke-linecap="square" stroke-linejoin="round" stroke-width="0.7"/>
    <path id="Контур_443" data-name="Контур 443" d="M929.058,1816.463a8.224,8.224,0,0,1-2.771-3.086c-.342-.762-1.042-1.919-.7-2.4s1.694-.219,2.552-.141a8.3,8.3,0,0,1,3.784,1.569c2.344,1.652,3.6,3.9,2.813,5.021S931.4,1818.115,929.058,1816.463Z" transform="translate(-912.669 -1797.259)" fill="#fff" stroke="#9f8849" stroke-linecap="square" stroke-linejoin="round" stroke-width="0.7"/>
    <ellipse id="Эллипс_63" data-name="Эллипс 63" cx="1.439" cy="0.76" rx="1.439" ry="0.76" transform="translate(19.149 20.145)" fill="#fff" stroke="#9f8849" stroke-linecap="square" stroke-linejoin="round" stroke-width="0.7"/>
  </g>
</svg>
