<svg width="18" height="22" viewBox="0 0 18 22" fill="none" xmlns="http://www.w3.org/2000/svg">
<path d="M16.7091 11.6514C16.7091 12.8571 13.0786 13.8347 8.59961 13.8347L16.7091 11.6514Z" fill="#2C2E33"/>
<path d="M16.7091 11.6514C16.7091 12.8571 13.0786 13.8347 8.59961 13.8347" stroke="#9F8849" stroke-width="0.5" stroke-linecap="square" stroke-linejoin="round"/>
<path d="M8.59985 12.9375C4.12158 12.9375 0.490723 11.9602 0.490723 10.7544L8.59985 12.9375Z" fill="#2C2E33"/>
<path d="M8.59985 12.9375C4.12158 12.9375 0.490723 11.9602 0.490723 10.7544" stroke="#9F8849" stroke-width="0.5" stroke-linecap="square" stroke-linejoin="round"/>
<path d="M16.7095 9.62402C16.7095 10.8297 13.0789 11.8073 8.59985 11.8073C4.12158 11.8073 0.490723 10.8297 0.490723 9.62402C0.490723 8.41785 4.12158 7.44043 8.59985 7.44043C13.0789 7.44043 16.7095 8.41785 16.7095 9.62402Z" fill="#2C2E33" stroke="#9F8849" stroke-width="0.5" stroke-linecap="square" stroke-linejoin="round"/>
<path d="M1.4126 10.5856C2.76794 9.88928 5.47803 9.41406 8.59973 9.41406C11.7534 9.41406 14.4865 9.8988 15.8276 10.6067" fill="#2C2E33"/>
<path d="M1.4126 10.5856C2.76794 9.88928 5.47803 9.41406 8.59973 9.41406C11.7534 9.41406 14.4865 9.8988 15.8276 10.6067" stroke="#9F8849" stroke-width="0.5" stroke-linejoin="round"/>
<path d="M0.490723 2.4502C0.490723 1.24426 4.12158 0.26709 8.59985 0.26709C13.0789 0.26709 16.7095 1.24426 16.7095 2.4502V4.16553C15.8826 5.13513 12.4521 4.63354 8.59985 4.63354C4.87256 4.63354 1.45886 5.14661 0.510498 4.224L0.490723 2.4502Z" fill="#2C2E33" stroke="#9F8849" stroke-width="0.5" stroke-linecap="square" stroke-linejoin="round"/>
<path d="M0.490723 4.47717C0.490723 3.27148 4.12158 2.29395 8.59985 2.29395C13.0789 2.29395 16.7095 3.27148 16.7095 4.47717C16.7095 5.68311 13.0789 6.66064 8.59985 6.66064C4.12158 6.66064 0.490723 5.68311 0.490723 4.47717Z" fill="#2C2E33" stroke="#9F8849" stroke-width="0.5" stroke-linecap="square" stroke-linejoin="round"/>
<path d="M16.7095 18.8247C16.7095 20.0305 13.0789 21.0082 8.59985 21.0082C4.12158 21.0082 0.490723 20.0305 0.490723 18.8247" fill="#2C2E33"/>
<path d="M16.7095 18.8247C16.7095 20.0305 13.0789 21.0082 8.59985 21.0082C4.12158 21.0082 0.490723 20.0305 0.490723 18.8247" stroke="#9F8849" stroke-width="0.5" stroke-linecap="square" stroke-linejoin="round"/>
<line x1="0.740723" y1="9.87402" x2="0.740723" y2="18.575" stroke="#9F8849" stroke-width="0.5" stroke-linecap="square" stroke-linejoin="round"/>
<line x1="16.959" y1="9.87402" x2="16.959" y2="18.3672" stroke="#9F8849" stroke-width="0.5" stroke-linecap="square" stroke-linejoin="round"/>
</svg>
