<svg xmlns="http://www.w3.org/2000/svg" width="16.919" height="21.441" viewBox="0 0 16.919 21.441">
  <g id="Сгруппировать_277" data-name="Сгруппировать 277" transform="translate(0.35 0.35)">
    <path id="Контур_426" data-name="Контур 426" d="M1199.109,1803.807c0,1.206-3.63,2.183-8.109,2.183" transform="translate(-1182.891 -1792.423)" fill="#fff" stroke="#9f8849" stroke-linecap="square" stroke-linejoin="round" stroke-width="0.7"/>
    <path id="Контур_427" data-name="Контур 427" d="M1161.109,1801.788c-4.478,0-8.109-.977-8.109-2.183" transform="translate(-1153 -1789.118)" fill="#fff" stroke="#9f8849" stroke-linecap="square" stroke-linejoin="round" stroke-width="0.7"/>
    <path id="Контур_428" data-name="Контур 428" d="M1169.219,1786.259c0,1.206-3.631,2.183-8.11,2.183s-8.109-.978-8.109-2.183,3.631-2.184,8.109-2.184S1169.219,1785.052,1169.219,1786.259Z" transform="translate(-1153 -1776.902)" fill="#fff" stroke="#9f8849" stroke-linecap="square" stroke-linejoin="round" stroke-width="0.7"/>
    <path id="Контур_429" data-name="Контур 429" d="M1157.32,1794.5a17.875,17.875,0,0,1,7.187-1.172,17.674,17.674,0,0,1,7.228,1.193" transform="translate(-1156.398 -1784.178)" fill="#fff" stroke="#9f8849" stroke-linejoin="round" stroke-width="0.7"/>
    <path id="Контур_430" data-name="Контур 430" d="M1153,1752.644c0-1.206,3.631-2.183,8.109-2.183s8.11.977,8.11,2.183v1.715c-.827.97-4.257.468-8.11.468-3.727,0-7.141.513-8.089-.41Z" transform="translate(-1153 -1750.461)" fill="#fff" stroke="#9f8849" stroke-linecap="square" stroke-linejoin="round" stroke-width="0.7"/>
    <path id="Контур_431" data-name="Контур 431" d="M1153,1762.143c0-1.206,3.631-2.183,8.109-2.183s8.11.978,8.11,2.183-3.631,2.183-8.11,2.183S1153,1763.349,1153,1762.143Z" transform="translate(-1153 -1757.933)" fill="#fff" stroke="#9f8849" stroke-linecap="square" stroke-linejoin="round" stroke-width="0.7"/>
    <path id="Контур_432" data-name="Контур 432" d="M1169.219,1837.423c0,1.206-3.631,2.183-8.11,2.183s-8.109-.978-8.109-2.183" transform="translate(-1153 -1818.865)" fill="#fff" stroke="#9f8849" stroke-linecap="square" stroke-linejoin="round" stroke-width="0.7"/>
    <line id="Линия_253" data-name="Линия 253" y2="9.201" transform="translate(0 9.357)" fill="#212327" stroke="#9f8849" stroke-linecap="square" stroke-linejoin="round" stroke-width="0.7"/>
    <line id="Линия_254" data-name="Линия 254" y2="8.993" transform="translate(16.219 9.357)" fill="#212327" stroke="#9f8849" stroke-linecap="square" stroke-linejoin="round" stroke-width="0.7"/>
  </g>
</svg>
