<svg xmlns="http://www.w3.org/2000/svg" width="28" height="39" viewBox="0 0 28 39">
  <g id="Сгруппировать_219" data-name="Сгруппировать 219" transform="translate(-162 -554)">
    <g id="Контур_333" data-name="Контур 333" transform="translate(162 554)" fill="#fff">
      <path d="M 22 38 L 6 38 C 3.242990016937256 38 1 35.75701141357422 1 33 L 1 13.43601226806641 C 1.381604552268982 13.10366916656494 1.955056071281433 12.54849433898926 2.89028000831604 11.62119960784912 C 3.975729942321777 10.54493999481201 5.458099842071533 9.045599937438965 7.296199798583984 7.164810180664062 C 9.863124847412109 4.538256168365479 12.42372035980225 1.883663058280945 13.27497386932373 1 L 22 1 C 24.75700950622559 1 27 3.242990016937256 27 6 L 27 33 C 27 35.75701141357422 24.75700950622559 38 22 38 Z" stroke="none"/>
      <path d="M 13.70003890991211 2 C 12.64505767822266 3.094245910644531 10.33078002929688 5.490402221679688 8.011369705200195 7.86366081237793 C 6.169620513916016 9.748159408569336 4.683530807495117 11.25124931335449 3.594369888305664 12.33119010925293 C 2.93794059753418 12.98207092285156 2.415700912475586 13.48892974853516 2.042160034179688 13.83770942687988 C 2.028059005737305 13.85087776184082 2.013978958129883 13.86402320861816 2 13.87706756591797 L 2 33 C 2 35.20560836791992 3.794389724731445 37 6 37 L 22 37 C 24.20561027526855 37 26 35.20560836791992 26 33 L 26 6 C 26 3.794391632080078 24.20561027526855 2 22 2 L 13.70003890991211 2 M 12.84961032867432 0 L 22 0 C 25.3137092590332 0 28 2.686290740966797 28 6 L 28 33 C 28 36.3137092590332 25.3137092590332 39 22 39 L 6 39 C 2.686290740966797 39 0 36.3137092590332 0 33 L 0 12.92505073547363 C 0.0915679931640625 13.26642227172852 12.84961032867432 0 12.84961032867432 0 Z" stroke="none" fill="#849362"/>
    </g>
    <g id="Контур_332" data-name="Контур 332" transform="translate(156.421 548.421)" fill="#fff">
      <path d="M 13.17414569854736 17.58575630187988 L 6.928202152252197 17.58575630187988 C 7.15968656539917 17.21203231811523 7.542085647583008 16.66521263122559 8.172885894775391 15.88864612579346 C 9.134136199951172 14.70525550842285 10.44305610656738 13.2739953994751 11.8585262298584 11.8585262298584 C 13.27400588989258 10.4430456161499 14.70525550842285 9.134125709533691 15.88863563537598 8.17287540435791 C 16.66520309448242 7.542075634002686 17.2120304107666 7.159674167633057 17.58575630187988 6.928192138671875 L 17.58575630187988 13.17414569854736 C 17.58575630187988 15.60671615600586 15.60671615600586 17.58575630187988 13.17414569854736 17.58575630187988 Z" stroke="none"/>
      <path d="M 16.58575630187988 8.895074844360352 C 16.49763488769531 8.966253280639648 16.40596389770508 9.041143417358398 16.31075668334961 9.11983585357666 C 15.19809532165527 10.03946590423584 13.86805534362793 11.26320552825928 12.56562614440918 12.56563568115234 C 11.26320552825928 13.86805534362793 10.03946590423584 15.19810581207275 9.11983585357666 16.31076622009277 C 9.041144371032715 16.40597534179688 8.966262817382812 16.49763488769531 8.895084381103516 16.58575630187988 L 13.17414569854736 16.58575630187988 C 15.05531597137451 16.58575630187988 16.58575630187988 15.05531597137451 16.58575630187988 13.17414569854736 L 16.58575630187988 8.895074844360352 M 18.2512035369873 5.578516960144043 C 18.46665382385254 5.578516960144043 18.58575630187988 5.697624206542969 18.58575630187988 5.95866584777832 L 18.58575630187988 13.17414569854736 C 18.58575630187988 16.16289520263672 16.16289520263672 18.58575630187988 13.17414569854736 18.58575630187988 L 5.95866584777832 18.58575630187988 C 3.23095703125 18.58575630187988 15.99988842010498 5.578516960144043 18.2512035369873 5.578516960144043 Z" stroke="none" fill="#849362"/>
    </g>
  </g>
</svg>
