<svg xmlns="http://www.w3.org/2000/svg" width="44.313" height="44.312" viewBox="0 0 44.313 44.312">
  <g id="Сгруппировать_371" data-name="Сгруппировать 371" transform="translate(0 0)">
    <path id="Контур_43" data-name="Контур 43" d="M485.8,606.976a22.154,22.154,0,1,0,6.49,15.666A22.072,22.072,0,0,0,485.8,606.976Zm-1.214,30.117a20.451,20.451,0,1,1,5.974-14.451A20.4,20.4,0,0,1,484.589,637.093Z" transform="translate(-447.98 -600.486)" fill="#aa9a5d"/>
    <path id="Контур_44" data-name="Контур 44" d="M483.126,619.178H466.793a3.063,3.063,0,0,0-3.062,3.064v12.247a3.062,3.062,0,0,0,3.062,3.063h16.333a3.062,3.062,0,0,0,3.061-3.063V622.242A3.063,3.063,0,0,0,483.126,619.178Zm0,2.042a.966.966,0,0,1,.332.061l-8.5,6.8-8.5-6.8a.967.967,0,0,1,.332-.061Zm0,14.29H466.793a1.02,1.02,0,0,1-1.02-1.021V623.344l8.549,6.838a1.015,1.015,0,0,0,1.274,0l8.55-6.838v11.146A1.02,1.02,0,0,1,483.126,635.51Z" transform="translate(-452.803 -606.209)" fill="#aa9a5d"/>
  </g>
</svg>
