<svg xmlns="http://www.w3.org/2000/svg" width="31.434" height="26.657" viewBox="0 0 31.434 26.657">
  <g id="Сгруппировать_242" data-name="Сгруппировать 242" transform="translate(-158.542 -1472.7)">
    <g id="Layer_54" data-name="Layer 54" transform="translate(158.542 1472.7)">
      <!-- Оновлений шлях для серця -->
      <path id="Серце" d="M284.505,286.9a3.141,3.141,0,0,1-2.233-.922l-10.8-10.8a9.142,9.142,0,0,1-2.641-6.551,8.449,8.449,0,0,1,8.511-8.386h.022a8.445,8.445,0,0,1,6.09,2.505l1.049,1.048.859-.859h0a8.794,8.794,0,0,1,11.531-.933,8.648,8.648,0,0,1,1.575,12.128,8.526,8.526,0,0,1-.727.828l-11.006,11.017A3.142,3.142,0,0,1,284.505,286.9Zm-7.181-24.571a6.422,6.422,0,0,0-4.465,1.8,6.291,6.291,0,0,0-1.929,4.539,7.044,7.044,0,0,0,2.044,5.031l10.8,10.8a1.048,1.048,0,0,0,1.483.006l.006-.006,11.017-11.027a6.548,6.548,0,0,0,1.856-5.032,6.474,6.474,0,0,0-2.547-4.769,6.677,6.677,0,0,0-8.773.744l-1.561,1.6a1.049,1.049,0,0,1-1.483.006l-.007-.006-1.782-1.782a6.586,6.586,0,0,0-4.612-1.908Z" transform="translate(-268.833 -260.244)" fill="#fff"/>
    </g>
  </g>
</svg>
