<svg xmlns="http://www.w3.org/2000/svg" width="15.258" height="20.343" viewBox="0 0 15.258 20.343">
  <g id="Сгруппировать_217" data-name="Сгруппировать 217" transform="translate(-415.885 -257.224)">
    <path id="Контур_11" data-name="Контур 11" d="M428.811,268.59a24.377,24.377,0,0,1-2.492,3.9,39.693,39.693,0,0,1-2.805,3.268,40.167,40.167,0,0,1-2.8-3.268,24.422,24.422,0,0,1-2.492-3.9,8.8,8.8,0,0,1-1.06-3.737,6.357,6.357,0,0,1,12.715,0A8.809,8.809,0,0,1,428.811,268.59Zm-5.3,8.977s7.629-7.229,7.629-12.714a7.629,7.629,0,1,0-15.258,0C415.885,270.338,423.513,277.567,423.513,277.567Z" fill="#7d7d7d"/>
    <path id="Контур_12" data-name="Контур 12" d="M428.822,272.7a2.543,2.543,0,1,1,2.543-2.542A2.543,2.543,0,0,1,428.822,272.7Zm0,1.272a3.815,3.815,0,1,0-3.814-3.815A3.815,3.815,0,0,0,428.822,273.976Z" transform="translate(-5.309 -5.309)" fill="#7d7d7d"/>
  </g>
</svg>
