<svg xmlns="http://www.w3.org/2000/svg" width="13.187" height="25.962" viewBox="0 0 13.187 25.962">
  <g id="Сгруппировать_274" data-name="Сгруппировать 274" transform="translate(0.25 0.25)">
    <rect id="Прямоугольник_176" data-name="Прямоугольник 176" width="8.664" height="4.617" transform="translate(1.934 7.45)" fill="none" stroke="#9f8849" stroke-miterlimit="10" stroke-width="0.5"/>
    <path id="Контур_446" data-name="Контур 446" d="M151.826,1808.03l-.638.783H139.816l-.677-.783v-10.663l1.934-1.949h8.664l2.089,1.949Z" transform="translate(-139.139 -1783.351)" fill="none" stroke="#9f8849" stroke-miterlimit="10" stroke-width="0.5"/>
    <path id="Контур_447" data-name="Контур 447" d="M157.219,1773.336h-5.053s-.491.045-.491-.68.491-.68.491-.68h5.053s.551,0,.551.68S157.219,1773.336,157.219,1773.336Z" transform="translate(-148.456 -1765.927)" fill="none" stroke="#9f8849" stroke-miterlimit="10" stroke-width="0.5"/>
    <path id="Контур_448" data-name="Контур 448" d="M160.115,1749.908s.241-1.484-1.765-1.484-1.831,1.484-1.831,1.484v4.563h3.6Z" transform="translate(-152.054 -1748.424)" fill="none" stroke="#9f8849" stroke-miterlimit="10" stroke-width="0.5"/>
    <line id="Линия_259" data-name="Линия 259" x2="10.211" transform="translate(1.238 24.391)" fill="none" stroke="#9f8849" stroke-miterlimit="10" stroke-width="0.5"/>
    <path id="Контур_449" data-name="Контур 449" d="M146.474,1806.589a.53.53,0,0,1-.58.46h0a.531.531,0,0,1-.58-.46v-2.945a.531.531,0,0,1,.58-.46h0a.53.53,0,0,1,.58.46Z" transform="translate(-143.728 -1789.123)" fill="none" stroke="#9f8849" stroke-miterlimit="10" stroke-width="0.5"/>
  </g>
</svg>
