<svg xmlns="http://www.w3.org/2000/svg" width="33.641" height="38.081" viewBox="0 0 33.641 38.081">
  <g id="Сгруппировать_370" data-name="Сгруппировать 370" transform="translate(-151 -244.484)">
    <circle id="Эллипс_49" data-name="Эллипс 49" cx="16.5" cy="16.5" r="16.5" transform="translate(151 245)" fill="#6f7d4f"/>
    <g id="Сгруппировать_258" data-name="Сгруппировать 258" transform="translate(13.923 -671.366)">
      <path id="Контур_380" data-name="Контур 380" d="M144.773,957.216c-1.375.88-2.438,2.529-3.62,1.348s.436-2.208,1.371-3.528c.866-1.221-.491-1.861.306-2.659l15.232-15.232,4.509,4.509-15.26,15.26C146.527,957.7,145.739,956.6,144.773,957.216Z" transform="translate(-0.976 -12.231)" fill="#6f7d4f" stroke="#fff" stroke-miterlimit="10" stroke-width="1"/>
      <path id="Контур_381" data-name="Контур 381" d="M186.644,939.137l-6.337-6.337a.9.9,0,0,1,1.276-1.276l6.338,6.337a.906.906,0,1,1-1.277,1.277Z" transform="translate(-24.09 -8.755)" fill="#6f7d4f" stroke="#fff" stroke-miterlimit="10" stroke-width="1"/>
      <path id="Контур_382" data-name="Контур 382" d="M196.974,921.789s2.328-1.724-.188-4.239-4.322-.27-4.322-.27l-6.232,6.232,4.509,4.509Z" transform="translate(-27.744)" fill="#6f7d4f" stroke="#fff" stroke-miterlimit="10" stroke-width="1"/>
      <line id="Линия_235" data-name="Линия 235" x2="8.963" transform="translate(144.218 937.781)" fill="none" stroke="#fff" stroke-miterlimit="10" stroke-width="1"/>
      <path id="Контур_383" data-name="Контур 383" d="M140.671,999.841a1.594,1.594,0,0,1-1.594-1.594c0-.88.714-3.009,1.594-3.009s1.595,2.129,1.594,3.009A1.594,1.594,0,0,1,140.671,999.841Z" transform="translate(0 -46.41)" fill="#6f7d4f" stroke="#fff" stroke-miterlimit="10" stroke-width="1"/>
      <line id="Линия_236" data-name="Линия 236" y1="4.751" x2="4.751" transform="translate(160.852 918.345)" fill="none" stroke="#fff" stroke-linecap="round" stroke-linejoin="round" stroke-width="1"/>
    </g>
  </g>
</svg>
