<svg xmlns="http://www.w3.org/2000/svg" xmlns:xlink="http://www.w3.org/1999/xlink" width="75.933" height="12.3" viewBox="0 0 75.933 12.3">
  <defs>
    <clipPath id="clip-path">
      <rect width="12.933" height="12.3" fill="none"/>
    </clipPath>
  </defs>
  <g id="Сгруппировать_26" data-name="Сгруппировать 26" transform="translate(-166 -2397)">
    <g id="Компонент_22_26" data-name="Компонент 22 – 26" transform="translate(166 2397)" clip-path="url(#clip-path)">
      <path id="Контур_49" data-name="Контур 49" d="M115.418,482.91l2,4.049,4.468.649-3.233,3.152.763,4.45-4-2.1-4,2.1.763-4.45-3.233-3.152,4.468-.649Z" transform="translate(-108.952 -482.91)" fill="#849362"/>
    </g>
    <g id="Компонент_22_27" data-name="Компонент 22 – 27" transform="translate(182 2397)" clip-path="url(#clip-path)">
      <path id="Контур_49-2" data-name="Контур 49" d="M115.418,482.91l2,4.049,4.468.649-3.233,3.152.763,4.45-4-2.1-4,2.1.763-4.45-3.233-3.152,4.468-.649Z" transform="translate(-108.952 -482.91)" fill="#849362"/>
    </g>
    <g id="Компонент_22_28" data-name="Компонент 22 – 28" transform="translate(197 2397)" clip-path="url(#clip-path)">
      <path id="Контур_49-3" data-name="Контур 49" d="M115.418,482.91l2,4.049,4.468.649-3.233,3.152.763,4.45-4-2.1-4,2.1.763-4.45-3.233-3.152,4.468-.649Z" transform="translate(-108.952 -482.91)" fill="#849362"/>
    </g>
    <g id="Компонент_22_35" data-name="Компонент 22 – 35" transform="translate(213 2397)" clip-path="url(#clip-path)">
      <path id="Контур_49-4" data-name="Контур 49" d="M115.418,482.91l2,4.049,4.468.649-3.233,3.152.763,4.45-4-2.1-4,2.1.763-4.45-3.233-3.152,4.468-.649Z" transform="translate(-108.952 -482.91)" fill="#849362"/>
    </g>
    <g id="Компонент_22_36" data-name="Компонент 22 – 36" transform="translate(229 2397)" clip-path="url(#clip-path)">
      <path id="Контур_49-5" data-name="Контур 49" d="M115.418,482.91l2,4.049,4.468.649-3.233,3.152.763,4.45-4-2.1-4,2.1.763-4.45-3.233-3.152,4.468-.649Z" transform="translate(-108.952 -482.91)" fill="#849362"/>
    </g>
  </g>
</svg>
