<svg xmlns="http://www.w3.org/2000/svg" width="75.933" height="12.301" viewBox="0 0 75.933 12.301">
  <g id="Сгруппировать_369" data-name="Сгруппировать 369" transform="translate(-168 -2397)">
    <path id="Контур_49" data-name="Контур 49" d="M115.418,482.91l2,4.049,4.468.649-3.233,3.152.763,4.45-4-2.1-4,2.1.763-4.45-3.233-3.152,4.468-.649Z" transform="translate(122.048 1914.09)" fill="#c7c7c7"/>
    <path id="Контур_52" data-name="Контур 52" d="M115.418,482.91l2,4.049,4.468.649-3.233,3.152.763,4.45-4-2.1-4,2.1.763-4.45-3.233-3.152,4.468-.649Z" transform="translate(106.048 1914.09)" fill="#c7c7c7"/>
    <path id="Контур_53" data-name="Контур 53" d="M115.418,482.91l2,4.049,4.468.649-3.233,3.152.763,4.45-4-2.1-4,2.1.763-4.45-3.233-3.152,4.468-.649Z" transform="translate(90.048 1914.09)" fill="#c7c7c7"/>
    <path id="Контур_54" data-name="Контур 54" d="M115.418,482.91l2,4.049,4.468.649-3.233,3.152.763,4.45-4-2.1-4,2.1.763-4.45-3.233-3.152,4.468-.649Z" transform="translate(75.048 1914.09)" fill="#c7c7c7"/>
    <path id="Контур_55" data-name="Контур 55" d="M115.418,482.91l2,4.049,4.468.649-3.233,3.152.763,4.45-4-2.1-4,2.1.763-4.45-3.233-3.152,4.468-.649Z" transform="translate(59.048 1914.09)" fill="#c7c7c7"/>
  </g>
</svg>
