<svg xmlns="http://www.w3.org/2000/svg" width="21" height="21" viewBox="0 0 21 21">
  <g id="Group_4" data-name="Group 4" transform="translate(-201.525 -283.521)">
    <path id="Path_5" data-name="Path 5" d="M235.318,315.756a1.1,1.1,0,0,1,0,1.557h0a1.1,1.1,0,0,1-1.558,0l-7.4-7.4a1.1,1.1,0,0,1,0-1.558h0a1.1,1.1,0,0,1,1.558,0Z" transform="translate(-13.115 -13.115)" fill="#aa9a5d"/>
    <path id="Path_6" data-name="Path 6" d="M203.775,296.636a7.682,7.682,0,1,0,0-10.865A7.681,7.681,0,0,0,203.775,296.636Zm9.483-9.482a5.728,5.728,0,1,1-8.1,0A5.728,5.728,0,0,1,213.258,287.153Z" transform="translate(0)" fill="#aa9a5d"/>
  </g>
</svg>
