<svg xmlns="http://www.w3.org/2000/svg" width="213.931" height="32.369" viewBox="0 0 213.931 32.369">
  <g id="Сгруппировать_233" data-name="Сгруппировать 233" transform="translate(-139 -960)">
    <path id="Контур_49" data-name="Контур 49" d="M124.917,482.91l4.934,10,11.032,1.6-7.983,7.781,1.885,10.988-9.867-5.188-9.867,5.188,1.885-10.988-7.983-7.781,11.032-1.6Z" transform="translate(31.048 478.09)" fill="#f6f6f6" stroke="#ebebeb" stroke-linecap="round" stroke-linejoin="round" stroke-width="2"/>
    <path id="Контур_341" data-name="Контур 341" d="M124.917,482.91l4.934,10,11.032,1.6-7.983,7.781,1.885,10.988-9.867-5.188-9.867,5.188,1.885-10.988-7.983-7.781,11.032-1.6Z" transform="translate(76.048 478.09)" fill="#f6f6f6" stroke="#ebebeb" stroke-linecap="round" stroke-linejoin="round" stroke-width="2"/>
    <path id="Контур_342" data-name="Контур 342" d="M124.917,482.91l4.934,10,11.032,1.6-7.983,7.781,1.885,10.988-9.867-5.188-9.867,5.188,1.885-10.988-7.983-7.781,11.032-1.6Z" transform="translate(121.048 478.09)" fill="#f6f6f6" stroke="#ebebeb" stroke-linecap="round" stroke-linejoin="round" stroke-width="2"/>
    <path id="Контур_343" data-name="Контур 343" d="M124.917,482.91l4.934,10,11.032,1.6-7.983,7.781,1.885,10.988-9.867-5.188-9.867,5.188,1.885-10.988-7.983-7.781,11.032-1.6Z" transform="translate(166.048 478.09)" fill="#f6f6f6" stroke="#ebebeb" stroke-linecap="round" stroke-linejoin="round" stroke-width="2"/>
    <path id="Контур_344" data-name="Контур 344" d="M124.917,482.91l4.934,10,11.032,1.6-7.983,7.781,1.885,10.988-9.867-5.188-9.867,5.188,1.885-10.988-7.983-7.781,11.032-1.6Z" transform="translate(211.048 478.09)" fill="#f6f6f6" stroke="#ebebeb" stroke-linecap="round" stroke-linejoin="round" stroke-width="2"/>
  </g>
</svg>
