<svg id="Сгруппировать_243" data-name="Сгруппировать 243" xmlns="http://www.w3.org/2000/svg" width="44.313" height="44.312" viewBox="0 0 44.313 44.312">
  <path id="Контур_43" data-name="Контур 43" d="M485.8,606.976a22.154,22.154,0,1,0,6.49,15.666A22.072,22.072,0,0,0,485.8,606.976Zm-1.214,30.117a20.451,20.451,0,1,1,5.974-14.451A20.4,20.4,0,0,1,484.589,637.093Z" transform="translate(-447.98 -600.486)" fill="#aa9a5d"/>
  <g id="Сгруппировать_37" data-name="Сгруппировать 37" transform="translate(8.554 10.989)">
    <path id="Контур_87" data-name="Контур 87" d="M299.309,505.17h0a1.669,1.669,0,0,1-1.107-.42l-9.732-8.563-5.658-1.136a1.672,1.672,0,0,1-.287-3.193l20.313-7.978a1.669,1.669,0,0,1,2.236,1.919l-4.138,18.073a1.67,1.67,0,0,1-1.628,1.3Zm3.818-20.554.289.735L283.1,493.328c-.028.011-.058.023-.052.088a.085.085,0,0,0,.077.089l5.862,1.176a.793.793,0,0,1,.366.181l9.893,8.7a.081.081,0,0,0,.129-.006.09.09,0,0,0,.022-.041l4.137-18.068a.086.086,0,0,0-.013-.064.087.087,0,0,0-.057-.04Z" transform="translate(-281.47 -483.767)" fill="#aa9a5d"/>
    <path id="Контур_88" data-name="Контур 88" d="M298.914,496.37a.789.789,0,0,1-.463-1.429l14.977-10.817a.789.789,0,0,1,.924,1.28L299.376,496.22A.786.786,0,0,1,298.914,496.37Z" transform="translate(-291.55 -483.892)" fill="#aa9a5d"/>
    <path id="Контур_89" data-name="Контур 89" d="M299.793,521a1.657,1.657,0,0,1-1.171-.481,1.679,1.679,0,0,1-.5-1.187v-7.165a.789.789,0,1,1,1.579,0v7.164a.09.09,0,0,0,.026.063c.019.018.036.037.065.026a.088.088,0,0,0,.064-.027l3.438-3.437a.789.789,0,0,1,1.117,1.116l-3.434,3.433a1.652,1.652,0,0,1-1.173.494Z" transform="translate(-291.55 -500.48)" fill="#aa9a5d"/>
  </g>
</svg>
