<svg xmlns="http://www.w3.org/2000/svg" width="53.129" height="53.113" viewBox="0 0 53.129 53.113">
  <g id="Сгруппировать_184" data-name="Сгруппировать 184" transform="translate(1.061 0.75)">
    <path id="Контур_258" data-name="Контур 258" d="M275.269,806.06c0,9.479-7.423,17.162-16.58,17.162s-16.58-7.683-16.58-17.162,16.58-29.778,16.58-29.778S275.269,796.583,275.269,806.06Z" transform="translate(-235.515 -776.282)" fill="none" stroke="#849362" stroke-linecap="round" stroke-linejoin="round" stroke-width="1.5"/>
    <g id="Сгруппировать_183" data-name="Сгруппировать 183" transform="translate(13.596 24.554)">
      <line id="Линия_168" data-name="Линия 168" y2="6.743" transform="translate(2.442 0.347)" fill="none" stroke="#849362" stroke-linecap="round" stroke-linejoin="round" stroke-width="1.5"/>
      <line id="Линия_169" data-name="Линия 169" y2="6.744" transform="translate(7.863 0.159)" fill="none" stroke="#849362" stroke-linecap="round" stroke-linejoin="round" stroke-width="1.5"/>
      <line id="Линия_170" data-name="Линия 170" y2="6.744" transform="translate(12.092 0.159)" fill="none" stroke="#849362" stroke-linecap="round" stroke-linejoin="round" stroke-width="1.5"/>
      <line id="Линия_171" data-name="Линия 171" x2="4.883" transform="translate(0 0.347)" fill="none" stroke="#849362" stroke-linecap="round" stroke-linejoin="round" stroke-width="1.5"/>
      <line id="Линия_172" data-name="Линия 172" x2="4.147" transform="translate(7.945 3.531)" fill="none" stroke="#849362" stroke-linecap="round" stroke-linejoin="round" stroke-width="1.5"/>
      <path id="Контур_259" data-name="Контур 259" d="M275.905,815.322a2.318,2.318,0,0,1-1.423.5c-1.494,0-2.7-1.5-2.7-3.358s1.209-3.359,2.7-3.359a2.276,2.276,0,0,1,1.161.323" transform="translate(-256.587 -809.108)" fill="none" stroke="#849362" stroke-linecap="round" stroke-linejoin="round" stroke-width="1.5"/>
    </g>
    <line id="Линия_173" data-name="Линия 173" x2="13.05" y2="13.049" transform="translate(0 0.591)" fill="none" stroke="#849362" stroke-linecap="round" stroke-linejoin="round" stroke-width="1.5"/>
    <line id="Линия_174" data-name="Линия 174" x2="13.05" y2="13.05" transform="translate(37.957 38.253)" fill="none" stroke="#849362" stroke-linecap="round" stroke-linejoin="round" stroke-width="1.5"/>
  </g>
</svg>
