<svg xmlns="http://www.w3.org/2000/svg" width="57.534" height="38.001" viewBox="0 0 57.534 38.001">
  <g id="Сгруппировать_260" data-name="Сгруппировать 260" transform="translate(-1143.192 -507.949)">
    <path id="Контур_387" data-name="Контур 387" d="M1206.9,536.952a28.094,28.094,0,0,1-27.163,7.273,28.107,28.107,0,0,1,34.434-34.434A28.092,28.092,0,0,1,1206.9,536.952Z" transform="translate(-15.167 0)" fill="none" stroke="#849362" stroke-linecap="round" stroke-linejoin="round" stroke-width="1.5"/>
    <path id="Контур_388" data-name="Контур 388" d="M1206.9,536.952a28.094,28.094,0,0,1-27.163,7.273,28.107,28.107,0,0,1,34.434-34.434A28.092,28.092,0,0,1,1206.9,536.952Z" transform="translate(-15.167 0)" fill="none" stroke="#849362" stroke-linecap="round" stroke-linejoin="round" stroke-width="1.5"/>
    <line id="Линия_237" data-name="Линия 237" x1="28.651" y2="29.332" transform="translate(1164.567 514.893)" fill="none" stroke="#849362" stroke-linecap="round" stroke-linejoin="round" stroke-width="1.5"/>
    <line id="Линия_238" data-name="Линия 238" x2="14.989" transform="translate(1173.044 535.749)" fill="none" stroke="#849362" stroke-linecap="round" stroke-linejoin="round" stroke-width="1.5"/>
    <line id="Линия_239" data-name="Линия 239" x2="8.746" transform="translate(1185.51 523.282)" fill="none" stroke="#849362" stroke-linecap="round" stroke-linejoin="round" stroke-width="1.5"/>
    <line id="Линия_240" data-name="Линия 240" y1="13.596" transform="translate(1173.044 522.152)" fill="none" stroke="#849362" stroke-linecap="round" stroke-linejoin="round" stroke-width="1.5"/>
    <line id="Линия_241" data-name="Линия 241" y1="8.389" transform="translate(1185.51 514.893)" fill="none" stroke="#849362" stroke-linecap="round" stroke-linejoin="round" stroke-width="1.5"/>
    <path id="Контур_389" data-name="Контур 389" d="M1152.188,537.691a28.087,28.087,0,0,1-7.27-27.162" transform="translate(0 -0.739)" fill="none" stroke="#849362" stroke-linecap="round" stroke-linejoin="round" stroke-width="1.5"/>
    <path id="Контур_390" data-name="Контур 390" d="M1164.285,543.9c-3.627-1.367-9.178-4.026-12.1-6.944a28.087,28.087,0,0,1-7.27-27.162,28.107,28.107,0,0,1,25.239,5.517" transform="translate(0 0)" fill="none" stroke="#849362" stroke-linecap="round" stroke-linejoin="round" stroke-width="1.5"/>
    <path id="Контур_391" data-name="Контур 391" d="M1206.674,571.545" transform="translate(-27.321 -27.32)" fill="none" stroke="#849362" stroke-linecap="round" stroke-linejoin="round" stroke-width="1.5"/>
    <line id="Линия_242" data-name="Линия 242" x2="15.556" y2="15.556" transform="translate(1148.626 513.856)" fill="none" stroke="#849362" stroke-linecap="round" stroke-linejoin="round" stroke-width="1.5"/>
    <line id="Линия_243" data-name="Линия 243" y1="9.426" transform="translate(1158.41 513.856)" fill="none" stroke="#849362" stroke-linecap="round" stroke-linejoin="round" stroke-width="1.5"/>
    <line id="Линия_244" data-name="Линия 244" x1="7.259" transform="translate(1155.885 534.903)" fill="none" stroke="#849362" stroke-linecap="round" stroke-linejoin="round" stroke-width="1.5"/>
    <line id="Линия_245" data-name="Линия 245" x1="8.747" transform="translate(1149.663 523.282)" fill="none" stroke="#849362" stroke-linecap="round" stroke-linejoin="round" stroke-width="1.5"/>
    <path id="Контур_392" data-name="Контур 392" d="M1190.379,520.3" transform="translate(-20.222 -4.998)" fill="none" stroke="#849362" stroke-linecap="round" stroke-linejoin="round" stroke-width="1.5"/>
    <path id="Контур_393" data-name="Контур 393" d="M1193.36,521.9" transform="translate(-21.521 -5.692)" fill="none" stroke="#849362" stroke-linecap="round" stroke-linejoin="round" stroke-width="1.5"/>
    <path id="Контур_394" data-name="Контур 394" d="M1193.36,521.9" transform="translate(-21.521 -5.692)" fill="none" stroke="#849362" stroke-linecap="round" stroke-linejoin="round" stroke-width="1.5"/>
    <path id="Контур_395" data-name="Контур 395" d="M1193.36,521.9" transform="translate(-21.521 -5.692)" fill="none" stroke="#849362" stroke-linecap="round" stroke-linejoin="round" stroke-width="1.5"/>
    <path id="Контур_396" data-name="Контур 396" d="M1193.36,521.9" transform="translate(-21.521 -5.692)" fill="none" stroke="#849362" stroke-linecap="round" stroke-linejoin="round" stroke-width="1.5"/>
    <path id="Контур_397" data-name="Контур 397" d="M1193.36,521.9" transform="translate(-21.521 -5.692)" fill="none" stroke="#849362" stroke-linecap="round" stroke-linejoin="round" stroke-width="1.5"/>
  </g>
</svg>
