<svg xmlns="http://www.w3.org/2000/svg" width="44.313" height="44.312" viewBox="0 0 44.313 44.312">
  <g id="Сгруппировать_373" data-name="Сгруппировать 373" transform="translate(0 0)">
    <path id="Контур_39" data-name="Контур 39" d="M401.222,604.5a22.154,22.154,0,1,0,6.49,15.667A22.072,22.072,0,0,0,401.222,604.5Zm-1.214,30.118a20.451,20.451,0,1,1,5.974-14.452A20.4,20.4,0,0,1,400.008,634.616Z" transform="translate(-363.399 -598.009)" fill="#aa9a5d"/>
    <g id="_" data-name="[  &gt; ]" transform="translate(10.824 14.218)">
      <g id="Сгруппировать_6" data-name="Сгруппировать 6">
        <path id="Контур_40" data-name="Контур 40" d="M401.437,621.941a4.918,4.918,0,0,0-.9-2.25,3.245,3.245,0,0,0-2.27-.961c-3.173-.229-7.935-.229-7.935-.229s-4.762,0-7.935.23a3.237,3.237,0,0,0-2.271.96,4.9,4.9,0,0,0-.9,2.25A25.545,25.545,0,0,0,379,625.3v2.266a27.383,27.383,0,0,0,.227,3.43,4.893,4.893,0,0,0,.9,2.249,3.834,3.834,0,0,0,2.5.969c1.814.173,7.706.151,7.706.151s4.762.069,7.935-.16a3.239,3.239,0,0,0,2.27-.96,4.909,4.909,0,0,0,.9-2.249,27.359,27.359,0,0,0,.227-3.429V625.3A25.545,25.545,0,0,0,401.437,621.941Zm-14.128,7.52v-6.044l6.044,3.022Z" transform="translate(-378.999 -618.501)" fill="#aa9a5d"/>
      </g>
    </g>
  </g>
</svg>
