<svg xmlns="http://www.w3.org/2000/svg" width="272.728" height="272.6" viewBox="0 0 272.728 272.6">
  <g id="Сгруппировать_322" data-name="Сгруппировать 322" transform="translate(-2352.796 -376.181)">
    <g id="Сгруппировать_321" data-name="Сгруппировать 321" transform="translate(2352.796 376.181)">
      <path id="Контур_518" data-name="Контур 518" d="M2439.494,385.664c8.695-2.669,17.219-6.531,26.113-7.806,44.5-6.382,83.737,5.381,116.5,36.467C2629.3,459.1,2637.5,532.59,2601.755,587c-40.415,61.511-116.252,76.149-173.888,48.111a45.757,45.757,0,0,1-5.774-3.961l-.135.122c2.058.773,4.188,1.394,6.161,2.34,21.636,10.4,44.51,15.717,68.383,13.65,41.552-3.6,75.5-21.843,100.367-55.776,15.178-20.715,24.284-44.135,25.322-69.675,2.193-53.989-19.417-96.345-65.666-125.011-28.716-17.8-60.195-22.724-93.353-16.707-8,1.452-15.875,3.61-23.808,5.445Z" transform="translate(-2351.182 -376.181)" fill="#6f7d4f" fill-rule="evenodd"/>
      <path id="Контур_519" data-name="Контур 519" d="M2423.708,630.935c-6.474-3.965-13.467-7.287-19.334-12.006-29.841-24.006-47.261-55.333-50.925-93.345a135.765,135.765,0,0,1,82.319-138.7,38.985,38.985,0,0,1,5.341-1.431l-.13-.127c-1.887,1.08-3.7,2.329-5.673,3.211a134.289,134.289,0,0,0-50.091,37.888c-25.688,31.48-35.062,67.666-28.99,107.6,4.987,32.782,20.81,59.874,46.122,81.255,6.72,5.679,14.13,10.538,21.225,15.774Z" transform="translate(-2352.796 -375.968)" fill="#6f7d4f" fill-rule="evenodd"/>
      <path id="Контур_520" data-name="Контур 520" d="M2401.387,608.518a37.45,37.45,0,0,1,5.136,3.011c25.937,21.188,55.771,31.1,89.068,29.675,57.706-2.475,106.82-44.377,119.341-101.138a129.351,129.351,0,0,0-53.958-134.919c-78.173-52.873-186.71-4.74-199.476,88.581-5.7,41.659,6.448,77.73,35.062,108.4a64.305,64.305,0,0,1,4.456,6.007c-18.208-15.94-30.27-35.789-36.964-58.9-21.855-75.454,25.728-152.537,103.2-165.275,45.99-7.562,86.16,5.8,117.877,40.686,33.567,36.917,42.883,80.421,27.966,127.337-15.3,48.1-49.506,78.125-99.131,88.263-40.588,8.289-77.3-2.064-109.331-28.478A45.3,45.3,0,0,1,2401.387,608.518Z" transform="translate(-2352.658 -376.047)" fill="#6f7d4f" fill-rule="evenodd"/>
      <path id="Контур_521" data-name="Контур 521" d="M2561.906,510.8c.8,39.714-31.885,73.579-71.715,74.308-42.245.772-76.421-31.321-76.68-73.026-.257-41.524,31.364-73.873,72.074-75.28C2527.548,435.347,2561.051,468.327,2561.906,510.8Zm-2.247.473c-.046-39.579-32.09-72-71.173-72.008-40.142-.006-72.585,31.98-72.648,71.625-.062,39.49,32.48,72.168,71.777,72.075C2527.446,582.865,2559.7,550.765,2559.658,511.268Z" transform="translate(-2351.379 -374.767)" fill="#6f7d4f" fill-rule="evenodd"/>
      <path id="Контур_522" data-name="Контур 522" d="M2463.811,619.344q1.349-6.745,2.7-13.489l-.964-.409-6.853,12.222-1.015-.317V602.514l-.863-.312q-2.089,6.912-4.179,13.825l-1.214.226c-.338-1.252-1.2-2.63-.928-3.736q2.154-8.9,4.846-17.661c.366-1.2,1.709-2.1,2.6-3.135.84,1.42,2.267,2.788,2.4,4.274.348,3.747.116,7.545,1.084,11.609l6.724-13.176,4.549,1.591c-2.2,8.095-4.314,15.868-6.428,23.64Q2465.042,619.5,2463.811,619.344Z" transform="translate(-2350.517 -371.149)" fill="#6f7d4f" fill-rule="evenodd"/>
      <path id="Контур_523" data-name="Контур 523" d="M2541.658,607.251c-1.908-1.344-3.909-2.577-5.7-4.064-2.073-1.722-3.958-3.671-6.416-5.982-.426,5.575,5.576,8.911,4.2,13.934l-1.534.558c-3.425-6.74-6.889-13.462-10.215-20.251-.328-.67.19-1.754.315-2.646,1.029.216,2.422.078,3.024.7,2.984,3.095,5.76,6.388,8.608,9.612q.8-.635,1.589-1.273c-2.115-4.109-4.232-8.218-6.433-12.494C2532.645,585.044,2540.289,597.5,2541.658,607.251Z" transform="translate(-2348.849 -371.298)" fill="#6f7d4f" fill-rule="evenodd"/>
      <path id="Контур_524" data-name="Контур 524" d="M2517.186,617.845c-2.662-2.027-4.562-3.476-6.463-4.923-1.031,2-2.062,3.992-3.469,6.714-.626-1.111-1.649-2.131-1.74-3.226-.51-6.244-.935-12.5-1.047-18.765-.023-1.295,1.408-2.614,2.168-3.921,1.048.843,2.577,1.473,3.064,2.566,2.548,5.718,4.89,11.533,7.159,17.37C2517.295,614.785,2517.075,616.164,2517.186,617.845Z" transform="translate(-2349.255 -371.102)" fill="#6f7d4f" fill-rule="evenodd"/>
      <path id="Контур_525" data-name="Контур 525" d="M2452.255,428.669c-3.726-1.009-8.246-10.674-11.283-23.37,3.412-.3,7.749-1.992,9.641-.527,2.332,1.808,2.645,6.238,3.8,9.544a28.307,28.307,0,0,0,1.536,4.516c1.186,2.114,2.7,4.04,4.082,6.046l-1.455,1.288c-1.334-1.349-2.728-2.646-3.987-4.065-1.286-1.448-2.436-3.016-3.644-4.53l-1.877.773C2450.065,421.573,2451.062,424.8,2452.255,428.669Zm-4.106-23.81c-1.677,2.241-3.175,3.5-2.947,4.066a43.535,43.535,0,0,0,3.509,6.026c.9-1.011,2.677-2.185,2.527-3C2450.864,409.906,2449.613,408.026,2448.149,404.858Z" transform="translate(-2350.738 -375.527)" fill="#6f7d4f" fill-rule="evenodd"/>
      <path id="Контур_526" data-name="Контур 526" d="M2551.414,449.469l18.38-15.612c7.063,5.511,7.213,8.951.755,14.421-1.553,1.315-3.146,2.585-4.72,3.875C2558.532,458.141,2557.017,457.9,2551.414,449.469Zm20.278-10.549-2.018-.659c-3.967,3.14-8.032,6.164-11.826,9.5-.912.8-.913,2.638-1.333,4,1.629.014,3.691.673,4.806-.077a58.554,58.554,0,0,0,9.349-7.755C2571.668,442.9,2571.387,440.625,2571.691,438.921Z" transform="translate(-2348.159 -374.835)" fill="#6f7d4f" fill-rule="evenodd"/>
      <path id="Контур_527" data-name="Контур 527" d="M2446.771,589.3c-3.96,6.107-7.367,11.887-11.438,17.152-.711.92-4.688.352-6.282-.771-1.35-.949-2.519-4.2-1.887-5.557a88.436,88.436,0,0,1,8.667-14.831c.933-1.276,4.373-1.584,6.272-1.021C2443.751,584.767,2444.848,587.116,2446.771,589.3Zm-5.835-3.582c-1.647.8-2.5.933-2.787,1.405-2.772,4.605-5.528,9.223-8.045,13.969-.313.591.628,2.615,1.288,2.778,1.043.259,2.922-.109,3.428-.878a119.417,119.417,0,0,0,7.372-12.662C2442.684,589.336,2441.462,587.491,2440.936,585.723Z" transform="translate(-2351.064 -371.329)" fill="#6f7d4f" fill-rule="evenodd"/>
      <path id="Контур_528" data-name="Контур 528" d="M2423.713,580.183a7.746,7.746,0,0,0,.769-2.17,37.669,37.669,0,0,0-.23-4.092c-1.378.244-3.17.025-4.059.818a75.574,75.574,0,0,0-8.486,8.783c-.9,1.115-.658,3.153-.938,4.77,1.473-.268,2.96-.481,4.416-.826a13.023,13.023,0,0,0,2.1-.889l1.175,1.161c-1.263,1.336-2.343,3.458-3.834,3.8-1.856.429-4.681.027-5.923-1.2s-2.128-4.759-1.3-5.8a96.205,96.205,0,0,1,12.766-13.642c2.384-2.033,5.686-.659,7.284,2.34C2429.323,576.756,2427.881,579.191,2423.713,580.183Z" transform="translate(-2351.529 -371.658)" fill="#6f7d4f" fill-rule="evenodd"/>
      <path id="Контур_529" data-name="Контур 529" d="M2432.57,440.286c-5-7.385-9.534-14.087-14.036-20.739,5.658-5.3,6.757-5.759,9.407-3.866-1.688,1.4-3.332,2.769-5.348,4.444,1.4,2.034,2.7,3.92,3.97,5.758l5.842-2.036.554,1.125c-1.368,1.057-2.737,2.112-4.451,3.433l4.611,6.831,6.6-2.842c.307.513.613,1.024.921,1.536Z" transform="translate(-2351.262 -375.283)" fill="#6f7d4f" fill-rule="evenodd"/>
      <path id="Контур_530" data-name="Контур 530" d="M2411.343,436.178a20.263,20.263,0,0,0-3.283-.641,34.582,34.582,0,0,0-4.044.3c.318,1.331.21,3.074,1.029,3.919a80.125,80.125,0,0,0,9.1,8.167c1.179.892,3.184.694,4.812.994-.368-1.61-.693-3.231-1.127-4.821a7.654,7.654,0,0,0-.873-1.6l.995-1.269c1.279.967,3.42,1.767,3.649,2.937.4,2.075.375,5.025-.841,6.4-1.2,1.356-4.952,2.376-6.09,1.531a79.668,79.668,0,0,1-13.073-12c-1.009-1.182-.089-5.521,1.373-6.987,2.992-3,6.2-1.321,8.681,1.542Q2411.5,435.411,2411.343,436.178Z" transform="translate(-2351.667 -374.889)" fill="#6f7d4f" fill-rule="evenodd"/>
      <path id="Контур_531" data-name="Контур 531" d="M2483.074,620.9V597.086c8.019-1.976,12.255,1.194,10.584,8.662-.406,1.812-2.393,4.531-3.8,4.629-4.844.336-4.877,3.084-4.581,6.622a17.3,17.3,0,0,1-.581,3.984Zm8.665-17.263c-1.893-1.912-3.122-3.152-4.349-4.392-.766,1.426-2.207,2.9-2.113,4.266.1,1.511,1.61,2.93,2.506,4.389C2488.877,606.715,2489.973,605.534,2491.739,603.632Z" transform="translate(-2349.755 -371.037)" fill="#6f7d4f" fill-rule="evenodd"/>
      <path id="Контур_532" data-name="Контур 532" d="M2535.507,436.968l15.217-20.628c2.777,2.275,5.339,4.372,7.9,6.471q-.49.777-.976,1.554l-6.241-3.087-4.238,5.166c1.313,1.954,2.439,3.632,3.566,5.308q-.494.421-.985.84l-5.1-2.68-4.619,6.019,5.192,4.874q-.531.824-1.059,1.65Z" transform="translate(-2348.531 -375.244)" fill="#6f7d4f" fill-rule="evenodd"/>
      <path id="Контур_533" data-name="Контур 533" d="M2520.815,403.494c-5.515-.559-10.421-.422-9.129,7.023l4.177,2.377q-.054.609-.108,1.217l-5.441.241c-1.114,3.124-2.273,6.373-3.431,9.624l-2.278-.751c1.93-7.849,3.86-15.7,5.909-24.034l9.522,2.439Q2520.426,402.563,2520.815,403.494Z" transform="translate(-2349.252 -375.644)" fill="#6f7d4f" fill-rule="evenodd"/>
      <path id="Контур_534" data-name="Контур 534" d="M2549.382,581.051c.729-3.886-4.621-6.723-1.242-10.8l12.323,22.795c-.46-.046-1.755.228-2.412-.3-5.877-4.7-11.643-9.538-17.437-14.332C2541.184,577.747,2541.271,577.763,2549.382,581.051Z" transform="translate(-2348.411 -371.65)" fill="#6f7d4f" fill-rule="evenodd"/>
      <path id="Контур_535" data-name="Контур 535" d="M2475.477,422.33c-6.071-6.88-.744-17.11-10.306-23.637,4.357-.773,7.926-1.407,11.5-2.042-6.234,6.9-.72,13.8-1.17,20.282C2475.372,418.724,2475.477,420.531,2475.477,422.33Z" transform="translate(-2350.173 -375.703)" fill="#6f7d4f" fill-rule="evenodd"/>
      <path id="Контур_536" data-name="Контур 536" d="M2387.255,515.307c-.512-1.887-1.185-4.363-1.821-6.71l5.664-4.432c1.449,1.27,3.5,3.067,5.248,4.6-.46,2.246-.98,4.783-1.46,7.13Z" transform="translate(-2352.034 -373.193)" fill="#6f7d4f" fill-rule="evenodd"/>
      <path id="Контур_537" data-name="Контур 537" d="M2578.947,508.842c1.817-1.5,3.832-3.165,5.5-4.541l5.618,4.365c-.541,2.247-1.172,4.871-1.74,7.232l-7.478-.717C2580.3,513.361,2579.548,510.852,2578.947,508.842Z" transform="translate(-2347.516 -373.19)" fill="#6f7d4f" fill-rule="evenodd"/>
      <path id="Контур_538" data-name="Контур 538" d="M2490.035,422.921c.538-9.132.946-16.807,1.525-24.47.047-.616,1.272-1.141,1.949-1.71.417.638,1.225,1.295,1.2,1.909-.358,7.081-.779,14.161-1.385,21.224C2493.255,420.615,2491.9,421.244,2490.035,422.921Z" transform="translate(-2349.592 -375.701)" fill="#6f7d4f" fill-rule="evenodd"/>
      <path id="Контур_539" data-name="Контур 539" d="M2536.02,408.381c-2,7.929-6.444,14.858-10.581,23.828-.76-2.371-1.582-3.543-1.28-4.2,3.132-6.865,6.443-13.646,9.706-20.452Q2534.942,407.966,2536.02,408.381Z" transform="translate(-2348.797 -375.449)" fill="#6f7d4f" fill-rule="evenodd"/>
      <path id="Контур_540" data-name="Контур 540" d="M2487.8,579.662a68.376,68.376,0,0,1-68.789-67.783c-.339-38.6,29.532-69.078,68.094-69.482a68.4,68.4,0,0,1,69.5,68.738C2556.393,551.261,2522.44,580.5,2487.8,579.662Zm10.991-79.791c2.253,8.089,7.217,13.6,15.665,14.845a40.393,40.393,0,0,0,12.612-.413c7.787-1.357,12.237-6.577,13.4-14.188,1.2-7.833.787-15.665-6.405-20.806-8.236-5.887-17.287-5.771-26.138-1.46-7.9,3.848-9.15,11.249-9.024,19.106.018,1.021-.007,2.044-.013,3.056-2.357-6.241-7.451-8.952-13.467-10.582-3.374-.913-6.682-2.067-10.02-3.115,5.07-2.343,8.726-.433,12.616,2.05,2.141,1.366,5.49,1.455,8.135,1.057.837-.127,1.284-3.673,1.661-5.7.243-1.317.481-2.953-.083-4.023-.76-1.441-2.455-3.626-3.468-3.483-5.209.725-10.132-.339-15.211-1.014-3.359-.445-7.087.54-10.423,1.6-4.565,1.449-6.513,5.306-6.857,9.867a10.224,10.224,0,0,0,5.781,10.531,73.414,73.414,0,0,0,8.5,3.409c2.964,1.079,5.979,2.017,8.97,3.017-4.87,2.351-8.82,1.207-12.893-1.58-2.253-1.541-5.475-1.665-8.259-2.427-.591,2.287-1.3,4.552-1.723,6.869a38.1,38.1,0,0,0-.037,4.081c-.21,2.924,1.277,4.408,3.947,3.68,5.3-1.447,10.243.391,15.369.871C2493.608,516.254,2499.488,510.84,2498.791,499.87Zm-43.458-13.846c5.964.332,5.712-3.335,5.549-7.113-.2-4.617-3.657-3.062-6.038-3.2a100.893,100.893,0,0,0-12.743-.126c-2.194.154-5.9,1.046-6.148,2.2-.609,2.812-2.314,6.95,2.916,8.255.81.2,1.648,2.051,1.709,3.18.21,3.9.178,7.827.02,11.734-.041,1.024-.663,2.709-1.366,2.919-6.413,1.905-2.839,6.405-3.368,10.435,6.865,0,13.157-.289,19.406.1,4.565.28,6.66-1.366,5.483-5.7-.612-2.247-2.6-4.12-3.967-6.163l-1.453.781Zm-17.246,51.884c-.371,4.8,1.533,7.206,4.78,6.709,2.053-.313,4.969-2.76,5.344-4.674a41.133,41.133,0,0,0,.08-12.695c-.522-4.29-5.688-6.477-8.379-3.445-1.728,1.947-2.26,5.5-2.169,8.3.049,1.551,2.437,3.073,3.861,4.518a35.188,35.188,0,0,0,2.86,2.375l-.952,1.039C2441.909,539.408,2440.307,538.779,2438.087,537.908Zm12.6-4.324c0,2.2-.671,4.717.182,6.506.927,1.946,3.354,4.54,4.981,4.441,2.021-.122,5.211-2.457,5.567-4.29a34.321,34.321,0,0,0-.044-13.064c-.364-1.8-3.628-4.071-5.644-4.146-1.627-.057-3.9,2.6-4.882,4.549C2450.038,529.2,2450.686,531.555,2450.691,533.584Zm23.657.3c0-2.029.675-4.42-.168-6-1.091-2.043-3.352-4.7-5.185-4.759-1.853-.06-5.065,2.462-5.448,4.316a31.994,31.994,0,0,0-.009,12.562c.384,1.908,3.25,4.226,5.344,4.66,3.306.685,5.177-1.882,5.44-5.2C2474.466,537.616,2474.346,535.747,2474.348,533.886Zm31.446-.427h-.049c0,2.045-.649,4.411.162,6.057,1.033,2.1,2.994,4.638,5.013,5.135,3.19.788,5.513-1.506,5.649-4.992.158-4.079.511-8.271-.25-12.214-.355-1.836-3.253-4.571-4.8-4.443-2.015.167-4.377,2.443-5.551,4.426C2505.075,528.946,2505.795,531.415,2505.795,533.46Zm27.926,6.418-5.8-1.121c-.126.793-.642,1.955-.3,2.317,1.3,1.393,3.175,3.769,4.285,3.5,2.209-.534,5.213-2.192,5.832-4.066,2-6.039.084-9.514-5.886-12.513a10.167,10.167,0,0,0,1.926-.781c1.2-.839,2.336-1.772,3.5-2.668-1.25-.594-2.467-1.6-3.76-1.71-5.953-.492-6.179-.146-6.143,7.158.03,6.49.271,6.656,6.352,3.76Zm-41.318,4.738c4.343,0,7.038.133,9.707-.089.712-.058,1.6-1.1,1.892-1.883.152-.413-.687-1.457-1.312-1.827a13.166,13.166,0,0,0-2.821-.975c1.579-3.813,3.531-7.138,4.184-10.7.321-1.755-1.288-4.724-2.9-5.705-1.351-.823-4.337-.1-5.906.968-1.062.72-.922,3.214-1.319,4.915,1.456-.583,2.906-1.181,4.371-1.736a15.538,15.538,0,0,1,2.449-.14C2497.979,533.141,2495.514,538.215,2492.4,544.616Zm-15.977-19.156c1.055,3.792,2.03,6.271,2.384,8.838.372,2.677.017,5.448.267,8.151a2.694,2.694,0,0,0,1.826,1.884c.688.047,2.072-.991,2.084-1.576.151-6.514.1-13.033.1-20.727Zm42.333-.13c.973,3.957,1.853,6.626,2.237,9.364.35,2.5.028,5.085.288,7.6a2.869,2.869,0,0,0,1.7,2.081c.641.13,2.174-.862,2.186-1.386.153-6.608.1-13.223.1-20.987Zm-29.849,5.005-4.21,3.482c1.139.64,2.31,1.844,3.411,1.784,1.53-.084,3.009-1.117,4.509-1.744Z" transform="translate(-2351.25 -374.635)" fill="#6f7d4f" fill-rule="evenodd"/>
      <path id="Контур_541" data-name="Контур 541" d="M2523.209,494.373c-.015,8.1-1.279,9.946-6.317,9.275-5.009-.67-5.029-4.5-4.73-8.093.331-3.988-2.159-9.509,4.538-10.687,3.612-.634,6.5.432,6.508,4.92Q2523.213,492.081,2523.209,494.373Z" transform="translate(-2349.08 -373.648)" fill="#6f7d4f" fill-rule="evenodd"/>
      <path id="Контур_542" data-name="Контур 542" d="M2456.023,525.651v12.521l-1.275-.014V525.422Z" transform="translate(-2350.416 -372.697)" fill="#6f7d4f" fill-rule="evenodd"/>
      <path id="Контур_543" data-name="Контур 543" d="M2468.467,525.558v12.458c-.426,0-.853.005-1.277.009v-12.6Z" transform="translate(-2350.126 -372.697)" fill="#6f7d4f" fill-rule="evenodd"/>
      <path id="Контур_544" data-name="Контур 544" d="M2508.528,537.685V525.479l1.443,0v12.272Z" transform="translate(-2349.161 -372.696)" fill="#6f7d4f" fill-rule="evenodd"/>
    </g>
  </g>
</svg>
